<?xml version="1.0" encoding="utf-8"?>
<!-- Generator: Adobe Illustrator 22.1.0, SVG Export Plug-In . SVG Version: 6.00 Build 0)  -->
<svg version="1.1" id="Layer_1" xmlns="http://www.w3.org/2000/svg" xmlns:xlink="http://www.w3.org/1999/xlink" x="0px" y="0px"
	 viewBox="0 0 22 22" style="enable-background:new 0 0 22 22;" xml:space="preserve">
<style type="text/css">
	.st0{fill:#FAAD14;}
	.st1{fill:#FFFFFF;}
</style>
<path class="st0" d="M11,0C4.9,0,0,4.9,0,11c0,6.1,4.9,11,11,11c6.1,0,11-4.9,11-11C22,4.9,17.1,0,11,0z M10.9,17.5
	c-0.5,0-0.9-0.4-0.9-0.9c0-0.5,0.4-0.9,0.9-0.9c0.5,0,0.9,0.4,0.9,0.9C11.8,17,11.4,17.5,10.9,17.5z"/>
<path class="st1" d="M13,11.6c1.5-1.5,1.8-2.3,1.9-3.3c0.1-1-0.3-1.9-1-2.6c-0.7-0.8-1.8-1.2-2.9-1.2c-1,0-2,0.4-2.7,1.1
	C7.5,6.3,7.1,7.3,7.1,8.3c0,0.4,0.3,0.8,0.8,0.8c0.4,0,0.8-0.3,0.8-0.8C8.7,7,9.7,6,11,6h0c0.7,0,1.3,0.3,1.7,0.7
	c0.4,0.4,0.6,0.9,0.6,1.5c0,0.5,0,0.9-1.4,2.3c-0.9,0.9-1.7,1.7-1.8,2.8c0,0.4,0.3,0.8,0.7,0.8c0,0,0.1,0,0.1,0
	c0.4,0,0.7-0.3,0.8-0.7C11.7,12.9,12.2,12.4,13,11.6z"/>
</svg>
